<svg xmlns="http://www.w3.org/2000/svg" viewBox="0 0 64 64"><path d="M28 17v2c0 2.2 1.8 4 4 4s4-1.8 4-4v-2c0-2.2-1.8-4-4-4s-4 1.8-4 4zm6 0v2c0 1.1-.9 2-2 2s-2-.9-2-2v-2c0-1.1.9-2 2-2s2 .9 2 2zm28 44h-2c-.6 0-1 .4-1 1s.4 1 1 1h2c.6 0 1-.4 1-1s-.4-1-1-1z"/><path d="M56 61H41.8c.5-.8.7-1.8.5-2.7L39 38l1.9-9.7 3.6-9.1c.3-.7.4-1.4.4-2.1V10c0-1.7-1.3-3-3-3s-3 1.3-3 3v5.8L35.3 25h-6.6L25 15.8V10c0-1.7-1.3-3-3-3s-3 1.3-3 3v7.1c0 .7.1 1.4.4 2.1l3.6 9.1 2 9.7-1 6.2c-.1.5.3 1.1.8 1.1.5.1 1.1-.3 1.1-.8l.9-5.5h10.3l3.2 19.6c.1.6 0 1.2-.4 1.7s-.9.7-1.5.7c-.9 0-1.7-.6-1.9-1.5L33 41.8c-.1-.5-.5-.8-1-.8s-.9.3-1 .8l-3.4 17.7c-.2.9-1 1.5-1.9 1.5-.6 0-1.2-.3-1.5-.7-.4-.5-.5-1.1-.4-1.7l1.7-10.3c.1-.5-.3-1.1-.8-1.1-.7-.2-1.2.2-1.3.8l-1.6 10.3c-.2 1 0 1.9.5 2.8H20c-.6 0-1 .4-1 1s.4 1 1 1h36c.6 0 1-.4 1-1s-.4-1.1-1-1.1zM26.8 37 25 27.7l-3.7-9.3c-.2-.4-.3-.8-.3-1.3V10c0-.6.4-1 1-1s1 .4 1 1v6.2l4.1 10.2c.2.4.5.6.9.6h8c.4 0 .8-.2.9-.6L41 16.2V10c0-.6.4-1 1-1s1 .4 1 1v7.1c0 .5-.1.9-.3 1.4L39 27.7 37.2 37H26.8zm2.3 24c.2-.3.3-.7.4-1.1L32 47.3 34.5 60c.1.4.2.7.4 1h-5.8zM16 61H2c-.6 0-1 .4-1 1s.4 1 1 1h14c.6 0 1-.4 1-1s-.4-1-1-1z"/><path d="M26.9 11h10c.6 0 1-.4 1-1s-.4-1-1-1h-10c-.6 0-1 .4-1 1s.5 1 1 1zM61 16v-5h1c.6 0 1-.4 1-1s-.4-1-1-1h-1V4c0-.6-.4-1-1-1h-3V2c0-.6-.4-1-1-1h-4c-.6 0-1 .4-1 1v7h-4c-.6 0-1 .4-1 1s.4 1 1 1h4v7c0 .6.4 1 1 1h4c.6 0 1-.4 1-1v-1h3c.6 0 1-.4 1-1zm-2-1h-2V9.6c0-.6-.4-1-1-1s-1 .4-1 1V17h-2V3h2v3.1c0 .6.4 1 1 1s1-.4 1-1V5h2v10zM16.9 9H13V2c0-.6-.4-1-1-1H8c-.6 0-1 .4-1 1v1H4c-.6 0-1 .4-1 1v5H2c-.6 0-1 .4-1 1s.4 1 1 1h1v5c0 .6.4 1 1 1h3v1c0 .6.4 1 1 1h4c.6 0 1-.4 1-1v-7h3.9c.6 0 1-.4 1-1s-.5-1-1-1zM11 17H9v-3c0-.6-.4-1-1-1s-1 .4-1 1v1H5V5h2v5c0 .6.4 1 1 1s1-.4 1-1V3h2v14z"/></svg>